<svg width="303" height="211" viewBox="0 0 303 211" fill="none" xmlns="http://www.w3.org/2000/svg">
<path d="M5.48724 209.588H297.513" stroke="#47685C" stroke-dasharray="4 2"/>
<path d="M5.48724 157.499H297.513" stroke="#47685C" stroke-dasharray="4 2"/>
<path d="M5.48724 105.409H297.513" stroke="#47685C" stroke-dasharray="4 2"/>
<path d="M5.48724 53.32H297.513" stroke="#47685C" stroke-dasharray="4 2"/>
<path d="M5.48723 1.23071H297.513" stroke="#47685C" stroke-dasharray="4 2"/>
<path d="M5.99375 0.818481V210" stroke="#47685C" stroke-dasharray="4 2"/>
<path d="M54.4957 0.818481V210" stroke="#47685C" stroke-dasharray="4 2"/>
<path d="M102.998 0.818481V210" stroke="#47685C" stroke-dasharray="4 2"/>
<path d="M151.5 0.818481V210" stroke="#47685C" stroke-dasharray="4 2"/>
<path d="M200.002 0.818481V210" stroke="#47685C" stroke-dasharray="4 2"/>
<path d="M248.504 0.818481V210" stroke="#47685C" stroke-dasharray="4 2"/>
<path d="M297.006 0.818481V210" stroke="#47685C" stroke-dasharray="4 2"/>
<path opacity="0.2" fill-rule="evenodd" clip-rule="evenodd" d="M5.48723 189.082L41.9905 168.164L78.4937 136.786L114.997 153.521L151.5 105.409L188.003 63.5729L224.507 105.409L261.01 94.9502L297.513 84.4911V210H5.48723V189.082Z" fill="#319893"/>
<path d="M5.48723 189.082L41.9905 168.164L78.4937 136.786L114.997 153.521L151.5 105.409L188.003 63.5729L224.507 105.409L261.01 94.9502L297.513 84.4911" stroke="#1EEBA2" stroke-width="2" stroke-linejoin="round"/>
<path d="M5.48729 192.143C7.23631 192.143 9.02275 190.956 9.02275 189.082C9.02275 187.208 7.23631 186.021 5.48729 186.021C3.73827 186.021 1.95182 187.208 1.95182 189.082C1.95182 190.956 3.73827 192.143 5.48729 192.143Z" fill="white" stroke="#51FEF5" stroke-width="2"/>
<path d="M41.9895 171.225C43.7386 171.225 45.525 170.038 45.525 168.164C45.525 166.289 43.7386 165.103 41.9895 165.103C40.2405 165.103 38.4541 166.289 38.4541 168.164C38.4541 170.038 40.2405 171.225 41.9895 171.225Z" fill="white" stroke="#51FEF5" stroke-width="2"/>
<path d="M78.4929 139.848C80.2419 139.848 82.0284 138.661 82.0284 136.786C82.0284 134.912 80.2419 133.725 78.4929 133.725C76.7439 133.725 74.9574 134.912 74.9574 136.786C74.9574 138.661 76.7439 139.848 78.4929 139.848Z" fill="white" stroke="#51FEF5" stroke-width="2"/>
<path d="M114.997 156.582C116.746 156.582 118.532 155.395 118.532 153.521C118.532 151.647 116.746 150.46 114.997 150.46C113.248 150.46 111.461 151.647 111.461 153.521C111.461 155.395 113.248 156.582 114.997 156.582Z" fill="white" stroke="#51FEF5" stroke-width="2"/>
<path d="M151.5 108.47C153.249 108.47 155.035 107.283 155.035 105.409C155.035 103.535 153.249 102.348 151.5 102.348C149.751 102.348 147.964 103.535 147.964 105.409C147.964 107.283 149.751 108.47 151.5 108.47Z" fill="white" stroke="#51FEF5" stroke-width="2"/>
<path d="M188.003 66.634C189.752 66.634 191.538 65.4471 191.538 63.5729C191.538 61.6987 189.752 60.5119 188.003 60.5119C186.254 60.5119 184.467 61.6987 184.467 63.5729C184.467 65.4471 186.254 66.634 188.003 66.634Z" fill="white" stroke="#51FEF5" stroke-width="2"/>
<path d="M224.506 108.47C226.255 108.47 228.042 107.283 228.042 105.409C228.042 103.535 226.255 102.348 224.506 102.348C222.757 102.348 220.971 103.535 220.971 105.409C220.971 107.283 222.757 108.47 224.506 108.47Z" fill="white" stroke="#51FEF5" stroke-width="2"/>
<path d="M261.009 98.0112C262.758 98.0112 264.545 96.8243 264.545 94.9501C264.545 93.0759 262.758 91.8891 261.009 91.8891C259.26 91.8891 257.474 93.0759 257.474 94.9501C257.474 96.8243 259.26 98.0112 261.009 98.0112Z" fill="white" stroke="#51FEF5" stroke-width="2"/>
<path d="M297.513 87.5521C299.262 87.5521 301.048 86.3653 301.048 84.4911C301.048 82.6169 299.262 81.4301 297.513 81.4301C295.764 81.4301 293.977 82.6169 293.977 84.4911C293.977 86.3653 295.764 87.5521 297.513 87.5521Z" fill="white" stroke="#51FEF5" stroke-width="2"/>
</svg>
